/* XPM */
static char *xpm[]={
"27 21 61 1",
". c #000000",
"# c #90b1da",
"W c #c0bcb5",
"X c #c1beb7",
"2 c #c3bfb8",
"0 c #c4c1b9",
"4 c #c4c1ba",
"3 c #c5c1ba",
"Y c #c6c3bb",
"r c #c6c3bc",
"1 c #c7c3bc",
"Z c #c7c4bc",
"M c #c7c4bd",
"K c #c8c5be",
"6 c #c9c7bf",
"V c #cecac2",
"5 c #d1cdc5",
"a c #d2cdc7",
"A c #d3cfc7",
"x c #d4d0c7",
"t c #d4d0c8",
"p c #d4d1ca",
"o c #d5d0c6",
"v c #d5d0c8",
"u c #d5d1c8",
"y c #d5d1c9",
"L c #d5d1ca",
"n c #d6d0c6",
"m c #d6d1c6",
"c c #d6d1c7",
"J c #d6d2c9",
"C c #d6d2ca",
"z c #d6d2cb",
"q c #d6d3cc",
"b c #d7d2c8",
"I c #d7d3ca",
"s c #d7d3cb",
"U c #d7d3cc",
"N c #d8d4cd",
"d c #d9d3c9",
"D c #d9d5cc",
"E c #d9d5cd",
"i c #dad5ca",
"G c #dad5cd",
"w c #dad6cd",
"B c #dad6ce",
"T c #dad6cf",
"H c #dbd6ce",
"F c #dbd7cf",
"O c #dbd7d0",
"f c #dcd7cc",
"R c #dcd8d0",
"l c #ddd7cd",
"j c #ded8cd",
"h c #ded9ce",
"S c #dedad2",
"g c #dfd9ce",
"k c #dfd9cf",
"P c #dfdbd3",
"e c #e1dbd0",
"Q c #e1ddd5",
"...........................",
".#########################.",
".#########################.",
".abbcccdefghhfijkljmnnopqr.",
".stuvvvw............xxxxyr.",
".zAtttttBCDDEsCEFGHtttttyr.",
".zAtAAAAAAsIsJCsJAAAAAAAtK.",
".LtttttttttttttttttttttttK.",
".ztt...................ttM.",
".zttNNNNNOPQRQPQSTNNNNNttK.",
".zUttttttttttttttttttttttM.",
".ztt...................ttK.",
".LtttttttttttttttttttttttK.",
".ztttttttttttttttttttttttM.",
".ztN...................ttK.",
".ztutttttttttttttttttttttt.",
".zVWXXXXXYrZ01111X20345Mtt.",
".ztyyyyyyyyyyyyyys.....Ktt.",
".Uuyyyyyyyyyyyyyys.....6tt.",
".yyyyyyyyyyyyyyyyyyyyyyyyy.",
"..........................."};
