/* XPM */
static char *xpm[]={
"45 43 67 2",
"Qt c None",
".l c #000000",
".2 c #000033",
".6 c #003300",
".3 c #003366",
".8 c #0033cc",
".N c #006600",
".F c #0066cc",
".5 c #0066ff",
".D c #008000",
".t c #0099ff",
".Q c #330000",
".I c #333300",
".h c #333333",
".T c #333366",
".g c #336600",
".s c #336633",
".A c #3366cc",
".d c #3366ff",
".c c #339900",
".H c #3399ff",
".n c #33cc00",
".# c #33cc33",
".U c #33cc66",
".J c #33cccc",
".u c #33ccff",
".b c #33ff66",
".G c #33ffff",
".W c #663300",
".L c #663333",
".R c #666633",
".K c #666666",
".e c #666699",
".v c #6666cc",
".p c #6699cc",
".z c #6699ff",
".y c #66ccff",
".C c #66ff66",
".f c #66ff99",
".x c #66ffff",
"#. c #808000",
".X c #996633",
"## c #996666",
".q c #996699",
".0 c #999933",
".S c #999966",
".i c #999999",
".Y c #9999cc",
"#a c #9999ff",
".7 c #99cccc",
".4 c #99ccff",
".m c #99ff99",
".w c #99ffff",
".B c #a6caf0",
".1 c #c0c0c0",
".E c #c0dcc0",
".9 c #cc9999",
".P c #cc99cc",
".O c #cccc66",
".Z c #cccc99",
".o c #cccccc",
".k c #ccccff",
".M c #ccff99",
".r c #ccffff",
".V c #ffcccc",
".j c #ffffcc",
".a c #ffffff",
"QtQtQtQtQtQtQtQtQtQtQtQtQtQtQtQtQtQtQtQtQtQtQtQtQtQtQtQtQtQtQtQtQtQtQtQtQtQtQtQtQtQtQtQtQt",
"QtQtQtQtQtQtQtQtQtQtQtQtQtQtQtQtQtQtQtQtQtQtQtQtQtQtQtQtQtQtQtQtQtQtQtQtQtQtQtQtQtQtQtQtQt",
"QtQtQtQtQtQtQtQtQtQtQtQtQtQtQtQtQtQtQtQtQtQtQtQtQtQtQtQtQtQtQtQtQtQtQtQtQtQtQtQtQtQtQtQtQt",
"QtQtQtQtQtQtQtQtQtQtQtQtQtQtQtQtQtQtQtQtQtQtQtQtQtQtQtQtQtQtQtQtQtQtQtQtQtQtQtQtQtQtQtQtQt",
"QtQtQtQtQtQtQtQtQtQtQtQtQtQtQtQtQtQtQtQtQtQtQtQtQtQtQtQtQtQtQtQtQtQtQtQtQtQtQtQtQtQtQtQtQt",
"QtQtQtQtQtQtQtQtQtQtQtQtQt.#.#.#.#.#.#.#.#QtQtQtQtQtQtQtQtQtQtQtQtQtQtQtQtQtQtQtQtQtQtQtQt",
"QtQtQtQtQtQtQtQtQtQtQt.#.#.aQtQtQt.b.#.c.c.c.d.e.e.e.e.e.e.e.e.e.e.e.eQtQtQtQtQtQtQtQtQtQt",
"QtQtQtQtQtQtQtQtQt.#.#.aQt.f.b.#.#.c.c.c.c.g.h.i.a.a.a.a.a.a.a.a.a.j.k.lQtQtQtQtQtQtQtQtQt",
"QtQtQtQtQtQtQtQt.#.aQt.m.b.#.n.c.g.g.c.g.g.d.h.i.o.a.p.q.h.h.h.h.h.h.r.lQtQtQtQtQtQtQtQtQt",
"QtQtQtQtQtQtQt.#.aQt.m.#.#.c.c.s.t.u.g.d.d.t.h.i.k.a.v.w.w.w.x.y.z.A.x.lQtQtQtQtQtQtQtQtQt",
"QtQtQtQtQtQtQt.B.g.C.b.#.c.c.s.t.u.u.t.u.D.t.h.i.o.a.v.w.w.x.w.y.u.A.w.lQtQtQtQtQtQtQtQtQt",
"QtQtQtQtQtQt.B.a.E.gQt.#.c.s.t.u.u.t.u.D.#.D.h.i.k.a.v.x.w.x.x.y.u.A.r.lQtQtQtQtQtQtQtQtQt",
"QtQtQtQtQtQt.B.a.r.w.gQt.g.t.u.u.t.u.D.#.g.g.h.i.o.a.v.y.y.y.y.u.z.F.a.lQtQtQtQtQtQtQtQtQt",
"QtQtQtQtQt.B.a.r.r.G.G.g.t.u.u.u.D.g.t.D.g.d.h.e.k.a.A.A.H.z.z.H.A.A.a.lQtQtQtQtQtQtQtQtQt",
"QtQtQtQtQt.B.a.r.G.G.u.u.u.u.t.u.D.g.t.t.d.d.d.h.I.k.a.j.a.j.a.j.a.j.k.lQtQtQtQtQtQtQtQtQt",
"QtQtQtQtQt.B.r.r.#.#.J.u.u.t.u.t.u.t.t.D.d.D.h.K.L.l.l.l.l.l.l.l.l.l.lQtQtQtQtQtQtQtQtQtQt",
"QtQtQtQtQt.B.r.#.M.m.N.N.t.u.t.u.t.t.DQt.D.c.h.K.O.P.h.Q.l.R.K.h.l.l.S.TQtQtQtQtQtQtQtQtQt",
"QtQtQtQtQt.B.#.o.m.m.b.N.u.t.u.t.t.t.D.U.U.U.h.e.K.i.o.V.V.j.j.V.o.o.a.o.TQtQtQtQtQtQtQtQt",
"QtQtQtQtQt.#.a.m.f.f.b.N.t.u.t.t.t.t.d.g.U.c.c.h.e.l.l.I.h.R.K.K.W.K.X.l.TQtQtQtQtQtQtQtQt",
"QtQtQtQtQt.#.m.f.i.Y.Y.Y.Y.Y.Y.Y.Y.Y.Y.Y.S.e.c.D.l.l.i.Z.R.o.o.k.i.0.h.1.TQtQtQtQtQtQtQtQt",
"QtQtQtQtQt.#.C.h.a.a.a.a.j.j.j.j.j.j.a.a.a.k.h.D.g.D.h.1.1.o.i.o.i.i.e.i.KQtQtQtQtQtQtQtQt",
"QtQtQtQtQtQt.#.h.k.a.j.Y.v.2.2.2.2.2.2.2.3.r.h.g.D.g.g.h.h.h.h.h.h.h.h.h.hQtQtQtQtQtQtQtQt",
"QtQtQtQtQtQt.#.h.4.k.a.v.x.w.w.w.y.y.H.H.5.x.h.D.g.g.6.lQtQt.y.7QtQtQtQtQtQtQtQtQtQtQtQtQt",
"QtQtQtQtQtQtQt.h.1.k.a.v.w.w.w.x.w.y.u.H.A.w.h.6.6.g.lQtQtQt.2.2.y.7QtQtQtQtQtQtQtQtQtQtQt",
"QtQtQtQtQtQtQt.h.k.1.a.p.x.w.w.x.x.y.u.t.A.r.h.8.8.6.lQtQtQtQtQt.2.2.y.7QtQtQtQtQtQtQtQtQt",
"QtQtQtQtQtQtQt.h.1.k.a.p.x.x.x.x.w.u.u.t.A.r.h.8.8.lQtQt.7.y.7.y.7.y.7.y.7QtQtQtQtQtQtQtQt",
"QtQtQtQtQtQtQt.h.1.1.a.p.y.w.x.x.y.u.z.t.A.a.h.l.lQtQtQt.2.2.y.7.2.2.2.2.2QtQtQtQtQtQtQtQt",
"QtQtQtQtQtQtQt.h.1.k.a.H.u.u.u.u.u.t.t.t.5.a.hQtQtQtQtQtQtQt.2.2.y.7QtQtQtQtQtQtQtQtQtQtQt",
"QtQtQtQtQtQtQt.I.I.1.j.y.A.A.A.A.A.A.A.A.A.a.hQtQtQtQtQtQtQtQtQt.2.2.y.7QtQtQtQtQtQtQtQtQt",
"QtQtQtQtQtQtQtQt.I.I.i.k.o.j.j.j.j.j.j.j.o.Y.lQt.7.y.7.y.7.y.7.y.7.y.7.y.7QtQtQtQtQtQtQtQt",
"QtQtQtQtQtQtQt.I.9.l.l.l.l.l.l.l.l.l.l.l.l.lQtQtQt.2.2.2.2.2.2.2.2.2.2.2.2QtQtQtQtQtQtQtQt",
"QtQtQtQtQtQtQt.I#..V.P.K.L.h.R.i.i.i.L.l.h.i.1QtQtQtQtQtQtQtQtQtQtQtQtQtQtQtQtQtQtQtQtQtQt",
"QtQtQtQtQtQtQt.I.e#..1.V.k.V.a.a.j.a.V.k.V.k.a.TQtQtQtQtQtQtQtQtQtQtQtQtQtQtQtQtQtQtQtQtQt",
"QtQtQtQtQtQtQt.I.e.e.h.h.h.R.h.R.h.R.h.X.e.X.Z.TQtQtQtQtQtQtQtQtQtQtQtQtQtQtQtQtQtQtQtQtQt",
"QtQtQtQtQtQtQtQt.h.e.h.1.X.1.R.a.a.Y.1.h.1##.i.iQtQtQtQtQtQtQtQtQtQtQtQtQtQtQtQtQtQtQtQtQt",
"QtQtQtQtQtQtQtQtQt.h.h.i.o.R.1.1.i.o.Y.S.X.h.Z.Y.hQtQtQtQtQtQtQtQtQtQtQtQtQtQtQtQtQtQtQtQt",
"QtQtQtQtQtQtQtQtQtQtQt.h#a.i.Y.i.Y.i.Y.K.Y.e.i.e.hQtQtQtQtQtQtQtQtQtQtQtQtQtQtQtQtQtQtQtQt",
"QtQtQtQtQtQtQtQtQtQtQtQtQtQtQtQtQtQtQtQtQtQtQtQtQtQtQtQtQtQtQtQtQtQtQtQtQtQtQtQtQtQtQtQtQt",
"QtQtQtQtQtQtQtQtQtQtQtQtQtQtQtQtQtQtQtQtQtQtQtQtQtQtQtQtQtQtQtQtQtQtQtQtQtQtQtQtQtQtQtQtQt",
"QtQtQtQtQtQtQtQtQtQtQtQtQtQtQtQtQtQtQtQtQtQtQtQtQtQtQtQtQtQtQtQtQtQtQtQtQtQtQtQtQtQtQtQtQt",
"QtQtQtQtQtQtQtQtQtQtQtQtQtQtQtQtQtQtQtQtQtQtQtQtQtQtQtQtQtQtQtQtQtQtQtQtQtQtQtQtQtQtQtQtQt",
"QtQtQtQtQtQtQtQtQtQtQtQtQtQtQtQtQtQtQtQtQtQtQtQtQtQtQtQtQtQtQtQtQtQtQtQtQtQtQtQtQtQtQtQtQt",
"QtQtQtQtQtQtQtQtQtQtQtQtQtQtQtQtQtQtQtQtQtQtQtQtQtQtQtQtQtQtQtQtQtQtQtQtQtQtQtQtQtQtQtQtQt"};
