/* XPM */
static char *xpm[]={
"32 32 8 1",
". c None",
"# c #000000",
"f c #000099",
"b c #0000ff",
"d c #009900",
"c c #00ff00",
"e c #ffff00",
"a c #ffffff",
".......#############............",
"......#aaaaaaaaaaaa##...........",
"......#a##########.##...........",
"......#a##########a##...........",
"......#a##bbbbbbbba##...........",
"......#a##bbbbbbbba##...........",
"......#a##bbbbbbbb######........",
"......#a##bbbbbb##########......",
"......#a##bbbbb#....#######.....",
"......#a##bbbb#..#####....##....",
"......#a.aaaa#aa#aaa##.....##...",
"......########a#########....##..",
"....#########aa#aaaaaaa##...##..",
"...#aaaaaaaa#..#....cc.##...##..",
"...#a.......#.#.....dd.##...##..",
"...#a.......#.########.##...##..",
"...#a.......#.########.##...##..",
"...###########.aaaaaaa.##..#a#..",
"....##########.........##..#.#..",
"......#......#.##########.#a#...",
".....###.....#############a.#...",
"......#.......#e#aaaaa##...#....",
".....###....##########..###.....",
".#####.#####bb#...######........",
".####...###bbf#.................",
".........#bbf#..................",
"........#bbf#...................",
".......#bbf#....................",
"......#bbf#.....................",
".....#bbf#......................",
".....#bf#.......................",
"......##........................"};
