/* XPM */
static char *xpm[]={
"125 52 3 1",
". c None",
"# c #003399",
"a c #ff9900",
"....................................................................................................................#........",
"....................................................................................................................#.......#",
"............................................................................................................#................",
"...........................................................................................................##................",
".............................................................................................................................",
".............................................................................................................................",
"....................................................................................................#........................",
"....................................................................................................##.......................",
".............................................................................................................................",
".............................................................................................................................",
".............................................................................................................................",
"...............................................................................aaaa..........................................",
"...............................................................................aaaaa.........................................",
"...............................................................................aaaaa..........###............................",
"................................................................................aaa...........###............................",
".............................................................................................................................",
".............................................................................................................................",
".............................................................................................................................",
".............................................................................................................................",
".............................................................................................................................",
".........##......................................#.........##.....................aaa......##................................",
".........##.....................................###........##.....................aaaa.....###...............................",
".........##................................................##.....................aaaa.....###...............................",
".........##................................................##......................aa......##................................",
".#####...##..##...##...##...#######...##...##...##.....######....#####.......................................................",
".##......##.###...##...##..###..##....##...##...##....##...##...##..##.......................................................",
"###......##.##....##...##..##....##...##...##...##...##....##..##....##......................................................",
".###.....####......##.##...##....##...##...##...##...##....##..########......................................................",
"..####...####......##.##...###..##....##...##...##...##....##..##............................................................",
"....##...##.##.....##.##....#####.....##...##...##...##....##..##.................a......####................................",
"....##...##..##.....###....##.........##..###...##...##...###...##...............aaa.....####................................",
".#####...##..###....###.....######....#######...##....#######...######...........aaa.....####................................",
".###.....##...##.....#......#######....##..##...##.....##..##.....###.............a.......##.................................",
"....................##.....##....##..........................................................................................",
"....................##.....##....##..........................................................................................",
".................####......###..###..........................................................................................",
".................###........#####............................................................................................",
".............................................................................................##..............................",
"..............................................................................aaa...........####.............................",
"..............................................................................aaa..........#####.............................",
"............................................................................................####.............................",
"............................................................................................###..............................",
".............................................................................................................................",
".............................................................................................................................",
".............................................................................................................................",
".........................................................................aa..................................................",
".............................................................................................................................",
".............................................................................................................................",
".............................................................................................................................",
"..................................................................aa.........................................................",
"..................................................................a..........................................................",
".................................................aa.......a.................................................................."};
