/* XPM */
static char *xpm[]={
"32 32 7 1",
". c None",
"# c #000000",
"a c #0000ff",
"e c #999900",
"b c #999999",
"d c #ffff00",
"c c #ffffff",
"................................",
"................................",
"###############################.",
"#aaaaaaaaaaaaaaaaaaaaaaaaaaaaa#b",
"#accaaaaaaccaaaaaaaccaaaaaacca#b",
"#ac###bb###caaaaaaaccaaaaaacca#b",
"#a#d.d##.db#aaaaaaaaaaaaaaaaaa#b",
"##d.#.d.d.db###################b",
"#d.#e#.d.dedb#cccccccccccccccc#b",
"#.#.e#d.de.edb#ccccccccccccccc#b",
"#d.##e.de.ed.d#bbbbbcbbbbbbbcc#b",
"e#d.d.de.ed.d#bccccccccccccccc#b",
"e#.d.de.ed.dc#bbbbbbcbbbbbbbcc#b",
"#.dee.eed.dce.#ccccccccccccccc#b",
"#d.edeed.dce.d.#bbbbcbbbbbbbcc#b",
"#cd.e.d.dce.d.d#cccccccccccccc#b",
"#ecded.dce.d##.#bbbbcbbbbbbbcc#b",
"#decc.cce.d.#bec#ccccccccccccc#b",
"b#deccee.d.dc#bec#bbcbbbbbbbcc#b",
"#b#deeee#.d.dc#bec#ccccccccccc#b",
"#cb#bb##d###.dc#bec#cbbbbbbbcc#b",
"#ccb##bb#eee#.dc#bec#ccccccccc#b",
"#ccbbbbbb###d##dc#bec#bbbbbbcc#b",
"#ccccccccccb#ee#dc#bec#bcccccc#b",
"#ccbbbbbbbcbb##d#dc#be#bbbbbcc#b",
"#cccccccccccccc#e#dc#b#bcccccc#b",
"#cccccccccccccc##d.dc##bcccccc#b",
"###############bb####e#b#######b",
".bbbbbbbbbbbbbbbb#eeee#bbbbbbbbb",
".................b####b.........",
"..................bbbb..........",
"................................"};
